<?xml version="1.0" encoding="utf-8" ?>
<svg xmlns="http://www.w3.org/2000/svg" xmlns:xlink="http://www.w3.org/1999/xlink" width="36" height="36" viewBox="0 0 36 36">
	<defs>
		<clipPath id="clipPath3199729257">
			<path d="M0 0L20 0L20 20L0 20L0 0Z" fill-rule="nonzero" transform="matrix(1 0 0 1 8 8)"/>
		</clipPath>
	</defs>
	<g clip-path="url(#clipPath3199729257)">
		<path d="M10 20C11.3797 20 12.4988 18.8809 12.4988 17.5L7.50117 17.5C7.50117 18.8809 8.62031 20 10 20M18.4137 14.152C17.659 13.341 16.2469 12.1211 16.2469 8.125C16.2469 5.08984 14.1187 2.66016 11.2492 2.06406L11.2492 1.25C11.2492 0.559766 10.6898 0 10 0C9.31016 0 8.75078 0.559766 8.75078 1.25L8.75078 2.06406C5.88125 2.66016 3.75312 5.08984 3.75312 8.125C3.75312 12.1211 2.34102 13.341 1.58633 14.152C1.35195 14.4039 1.24805 14.7051 1.25 15C1.2543 15.6406 1.75703 16.25 2.50391 16.25L17.4961 16.25C18.243 16.25 18.7461 15.6406 18.75 15C18.752 14.7051 18.648 14.4035 18.4137 14.152" fill-rule="nonzero" transform="matrix(1 0 0 1 8 8)" fill="rgb(255, 255, 255)"/>
	</g>
</svg>
