<?xml version="1.0" encoding="utf-8" ?>
<svg xmlns="http://www.w3.org/2000/svg" xmlns:xlink="http://www.w3.org/1999/xlink" width="20" height="20" viewBox="0 0 20 20">
	<defs>
		<clipPath id="clipPath7746682694">
			<path d="M0 0L20 0L20 20L0 20L0 0Z" fill-rule="nonzero" transform="matrix(1 0 0 1 0 0)"/>
		</clipPath>
	</defs>
	<g clip-path="url(#clipPath7746682694)">
		<path d="M3.33333 8.75C2.64167 8.75 2.08333 9.30833 2.08333 10C2.08333 10.6917 2.64167 11.25 3.33333 11.25C4.025 11.25 4.58333 10.6917 4.58333 10C4.58333 9.30833 4.025 8.75 3.33333 8.75M3.33333 3.75C2.64167 3.75 2.08333 4.30833 2.08333 5C2.08333 5.69167 2.64167 6.25 3.33333 6.25C4.025 6.25 4.58333 5.69167 4.58333 5C4.58333 4.30833 4.025 3.75 3.33333 3.75M3.33333 13.75C2.64167 13.75 2.08333 14.3167 2.08333 15C2.08333 15.6833 2.65 16.25 3.33333 16.25C4.01667 16.25 4.58333 15.6833 4.58333 15C4.58333 14.3167 4.025 13.75 3.33333 13.75M5.83333 15.8333L17.5 15.8333L17.5 14.1667L5.83333 14.1667L5.83333 15.8333M5.83333 10.8333L17.5 10.8333L17.5 9.16667L5.83333 9.16667L5.83333 10.8333M5.83333 4.16667L5.83333 5.83333L17.5 5.83333L17.5 4.16667L5.83333 4.16667" fill-rule="nonzero" transform="matrix(1 0 0 1 0 0)" fill="rgb(255, 255, 255)"/>
	</g>
</svg>
