<?xml version="1.0" encoding="utf-8" ?>
<svg xmlns="http://www.w3.org/2000/svg" xmlns:xlink="http://www.w3.org/1999/xlink" width="20" height="20" viewBox="0 0 20 20">
	<defs>
		<clipPath id="clipPath1949940389">
			<path d="M0 0L20 0L20 20L0 20L0 0Z" fill-rule="nonzero" transform="matrix(1 0 0 1 0 0)"/>
		</clipPath>
	</defs>
	<g clip-path="url(#clipPath1949940389)">
		<path d="M15 2.5L15 4.16667L13.3333 4.16667L13.3333 2.5L6.66667 2.5L6.66667 4.16667L5 4.16667L5 2.5L3.33333 2.5L3.33333 17.5L5 17.5L5 15.8333L6.66667 15.8333L6.66667 17.5L13.3333 17.5L13.3333 15.8333L15 15.8333L15 17.5L16.6667 17.5L16.6667 2.5L15 2.5M6.66667 14.1667L5 14.1667L5 12.5L6.66667 12.5L6.66667 14.1667M6.66667 10.8333L5 10.8333L5 9.16667L6.66667 9.16667L6.66667 10.8333M6.66667 7.5L5 7.5L5 5.83333L6.66667 5.83333L6.66667 7.5M15 14.1667L13.3333 14.1667L13.3333 12.5L15 12.5L15 14.1667M15 10.8333L13.3333 10.8333L13.3333 9.16667L15 9.16667L15 10.8333M15 7.5L13.3333 7.5L13.3333 5.83333L15 5.83333L15 7.5" fill-rule="nonzero" transform="matrix(1 0 0 1 0 0)" fill="rgb(255, 255, 255)"/>
	</g>
</svg>
