<?xml version="1.0" encoding="utf-8" ?>
<svg xmlns="http://www.w3.org/2000/svg" xmlns:xlink="http://www.w3.org/1999/xlink" width="20" height="20" viewBox="0 0 20 20">
	<defs>
		<clipPath id="clipPath4551793863">
			<path d="M0 0L20 0L20 20L0 20L0 0Z" fill-rule="nonzero" transform="matrix(1 0 0 1 0 0)"/>
		</clipPath>
	</defs>
	<g clip-path="url(#clipPath4551793863)">
		<path d="M19.1667 10L17.1333 7.68333L17.4167 4.61667L14.4083 3.93333L12.8333 1.28333L10 2.5L7.16667 1.28333L5.59167 3.93333L2.58333 4.60833L2.86667 7.675L0.833333 10L2.86667 12.3167L2.58333 15.3917L5.59167 16.075L7.16667 18.725L10 17.5L12.8333 18.7167L14.4083 16.0667L17.4167 15.3833L17.1333 12.3167L19.1667 10M10.8333 14.1667L9.16667 14.1667L9.16667 12.5L10.8333 12.5L10.8333 14.1667M10.8333 10.8333L9.16667 10.8333L9.16667 5.83333L10.8333 5.83333L10.8333 10.8333" fill-rule="nonzero" transform="matrix(1 0 0 1 0 0)" fill="rgb(255, 255, 255)"/>
	</g>
</svg>
